<svg id="Layer_1" data-name="Layer 1" xmlns="http://www.w3.org/2000/svg" viewBox="0 0 492.33 168.67"><defs><style>.cls-1{fill:#187ff2;}</style></defs><title>sitestack logo</title><path class="cls-1" d="M92.8,47.32a4.5,4.5,0,0,0-6.36,6.36l11,11a4.5,4.5,0,0,0,6.36-6.36Z"/><path class="cls-1" d="M69.8,47.32a4.5,4.5,0,1,0-6.36,6.36l34,34a4.5,4.5,0,0,0,6.36-6.36Z"/><path class="cls-1" d="M56.8,58.32a4.5,4.5,0,1,0-6.36,6.36l47,47a4.5,4.5,0,0,0,6.36-6.36Z"/><path class="cls-1" d="M56.75,83.27a4.5,4.5,0,0,0-6.27,6.45l36,35a4.5,4.5,0,0,0,6.27-6.45Z"/><path class="cls-1" d="M56.74,105.76a4.5,4.5,0,1,0-6.24,6.49l13,12.5a4.5,4.5,0,1,0,6.24-6.49Z"/><path class="cls-1" d="M180.4,92.3a24.15,24.15,0,0,0-5.15-1.78c-1.79-.41-3.47-0.82-5-1.23a14.64,14.64,0,0,1-3.66-1.48,2.41,2.41,0,0,1-1.22-2.27,3.3,3.3,0,0,1,1.73-2.74,10.06,10.06,0,0,1,5.58-1.26,23.64,23.64,0,0,1,7,1,7,7,0,0,0,2.07.38,2.89,2.89,0,0,0,2.05-1,3.2,3.2,0,0,0,1-2.24,3.59,3.59,0,0,0-2.46-3.44,30.37,30.37,0,0,0-10.24-1.76c-4.47,0-8,1.1-10.6,3.28a10,10,0,0,0-2.67,3.71,13.16,13.16,0,0,0-.88,5,7.92,7.92,0,0,0,1.67,5.09,12.19,12.19,0,0,0,4.06,3.25,23.85,23.85,0,0,0,5.15,1.88q2.68,0.66,5,1.27a18.46,18.46,0,0,1,3.69,1.36,1.82,1.82,0,0,1,1.15,1.7c0,1,0,4.21-7,4.21a20.57,20.57,0,0,1-8.48-1.73c-2-.88-3.39-0.88-4.59.49a3.76,3.76,0,0,0-.93,2.56,3.16,3.16,0,0,0,1.53,2.67,26.21,26.21,0,0,0,12.89,3.19c4.43,0,7.94-1.08,10.45-3.2a9.6,9.6,0,0,0,3.56-7.71A9.74,9.74,0,0,0,180.4,92.3Z"/><path class="cls-1" d="M197.34,60.63h-0.41a4.22,4.22,0,0,0-4.21,4.21v0.28a4.22,4.22,0,0,0,4.21,4.21h0.41a4.22,4.22,0,0,0,4.21-4.21V64.84A4.22,4.22,0,0,0,197.34,60.63Z"/><path class="cls-1" d="M197.1,74.77a3.72,3.72,0,0,0-2.73,1.1h0a3.76,3.76,0,0,0-1.1,2.76v29.6a3.68,3.68,0,0,0,1.1,2.7,3.94,3.94,0,0,0,5.46,0,3.68,3.68,0,0,0,1.1-2.7V78.64a3.77,3.77,0,0,0-1.1-2.76A3.72,3.72,0,0,0,197.1,74.77Z"/><path class="cls-1" d="M228.64,104.86a5.4,5.4,0,0,0-2,.36,7,7,0,0,1-2.37.26,4.71,4.71,0,0,1-2.37-.45c-0.85-.51-1.26-1.49-1.26-3V81.88h7.11a3.38,3.38,0,1,0,0-6.76h-7.11V70.29a2.09,2.09,0,0,0-.56-1.43A2,2,0,0,0,217,69l-9.36,9.15a2.24,2.24,0,0,0-.85,1.69,1.84,1.84,0,0,0,2,2H213v20.7c0,3.93,1.39,6.73,4.13,8.32a8.91,8.91,0,0,0,3.59,1.27,33.21,33.21,0,0,0,3.91.21,13.18,13.18,0,0,0,5.35-1.44,2.76,2.76,0,0,0,1.79-2.63,3.32,3.32,0,0,0-1-2.58A3.14,3.14,0,0,0,228.64,104.86Z"/><path class="cls-1" d="M252.34,74.43c-5.63,0-10,2-13.1,5.92a20.66,20.66,0,0,0-4.08,13.05c0,6,1.65,10.72,4.89,14s7.85,5,13.67,5a26.75,26.75,0,0,0,7.38-.93,19.24,19.24,0,0,0,2.65-1c0.79-.37,1.7-0.83,2.69-1.36a3.41,3.41,0,0,0,1.85-3.2,3,3,0,0,0-1.05-2.23c-1.31-1.2-2.69-1.22-4.64-.25a19.21,19.21,0,0,1-8.59,1.72c-3.35,0-6-.87-7.81-2.57h0A10.73,10.73,0,0,1,243,96.3h22.6a3.7,3.7,0,0,0,3.86-3.8,18.74,18.74,0,0,0-4.37-12.59C262,76.28,257.67,74.43,252.34,74.43Zm-9.4,15.39a9.75,9.75,0,0,1,1-3.62,8.72,8.72,0,0,1,8.36-5.08,9.26,9.26,0,0,1,6.18,2.18,9.5,9.5,0,0,1,3.29,6.51H242.94Z"/><path class="cls-1" d="M297.07,92.3a24.13,24.13,0,0,0-5.15-1.78c-1.79-.41-3.46-0.82-5-1.23a14.61,14.61,0,0,1-3.66-1.48,2.41,2.41,0,0,1-1.22-2.27,3.3,3.3,0,0,1,1.73-2.74,10.06,10.06,0,0,1,5.58-1.26,23.62,23.62,0,0,1,7,1,7,7,0,0,0,2.07.38,2.89,2.89,0,0,0,2.05-1,3.2,3.2,0,0,0,1-2.24,3.59,3.59,0,0,0-2.46-3.44,30.37,30.37,0,0,0-10.24-1.76c-4.47,0-8,1.1-10.6,3.28a10,10,0,0,0-2.67,3.71,13.17,13.17,0,0,0-.88,5,7.92,7.92,0,0,0,1.67,5.09,12.18,12.18,0,0,0,4.06,3.25,23.85,23.85,0,0,0,5.15,1.88q2.68,0.66,5,1.27a18.44,18.44,0,0,1,3.69,1.36,1.82,1.82,0,0,1,1.15,1.7c0,1,0,4.21-7,4.21a20.55,20.55,0,0,1-8.48-1.73c-2-.88-3.39-0.88-4.59.49a3.76,3.76,0,0,0-.93,2.56,3.2,3.2,0,0,0,1.53,2.67,26.21,26.21,0,0,0,12.89,3.19c4.43,0,7.94-1.08,10.45-3.2a9.6,9.6,0,0,0,3.56-7.71A9.74,9.74,0,0,0,297.07,92.3Z"/><path class="cls-1" d="M327.58,104.86a5.39,5.39,0,0,0-2,.36,7.05,7.05,0,0,1-2.37.26,4.71,4.71,0,0,1-2.37-.45c-0.85-.51-1.26-1.49-1.26-3V81.88h7.11a3.38,3.38,0,1,0,0-6.76h-7.11V70.29a2.09,2.09,0,0,0-.56-1.43A2,2,0,0,0,316,69l-9.36,9.15a2.24,2.24,0,0,0-.85,1.69,1.84,1.84,0,0,0,2,2H312v20.7c0,3.93,1.39,6.73,4.13,8.32a8.91,8.91,0,0,0,3.59,1.27,33.24,33.24,0,0,0,3.91.21,13.17,13.17,0,0,0,5.35-1.44,2.76,2.76,0,0,0,1.79-2.63,3.33,3.33,0,0,0-1-2.58A3.14,3.14,0,0,0,327.58,104.86Z"/><path class="cls-1" d="M350.18,74.43A31,31,0,0,0,337.9,77a3.1,3.1,0,0,0-2.21,2.91,3.63,3.63,0,0,0,1,2.74,2.83,2.83,0,0,0,1.93.92,5.8,5.8,0,0,0,1.45-.17,30.09,30.09,0,0,1,9-1.62c2.94,0,5.14.61,6.52,1.8s2,3.14,2,5.93H349.9c-5.33,0-9.51,1.11-12.42,3.31a10.15,10.15,0,0,0-4.14,8.56,10.31,10.31,0,0,0,3.55,8.11,12.38,12.38,0,0,0,8.39,2.93,17.76,17.76,0,0,0,8.29-1.74,22.85,22.85,0,0,0,4-2.62v0.21a3.75,3.75,0,0,0,3.79,3.79,3.8,3.8,0,0,0,2.72-1.09,3.62,3.62,0,0,0,1.14-2.71V88.71a13.9,13.9,0,0,0-3.63-9.78C358.89,75.95,355,74.43,350.18,74.43Zm7.38,26.3a17.71,17.71,0,0,1-4.24,3.26,11.38,11.38,0,0,1-5.7,1.5c-5.94,0-6.62-2.76-6.62-4.83a3.63,3.63,0,0,1,2.35-3.58,18.54,18.54,0,0,1,7.38-1.18h6.83v4.84Z"/><path class="cls-1" d="M391.85,81.68a14.53,14.53,0,0,1,7,1.84,5.66,5.66,0,0,0,2.75.78,2.72,2.72,0,0,0,2-1.14,3.89,3.89,0,0,0,.92-2.58,3.49,3.49,0,0,0-1.9-2.86,25.88,25.88,0,0,0-4.36-2.17,21.07,21.07,0,0,0-20.43,3.89c-3.81,3.52-5.74,8.22-5.74,14s1.93,10.44,5.74,14a19.09,19.09,0,0,0,13.37,5,20.63,20.63,0,0,0,11.42-3.29,3.49,3.49,0,0,0,1.9-2.85,3.89,3.89,0,0,0-.92-2.59c-1.21-1.43-2.83-1.46-4.79-.37a14.51,14.51,0,0,1-7.05,1.85c-3.83,0-6.83-1.08-8.89-3.21a11.77,11.77,0,0,1-3.12-8.52A11.78,11.78,0,0,1,383,84.88C385,82.75,388,81.68,391.85,81.68Z"/><path class="cls-1" d="M441.87,106L429.77,90l9.49-8.5a4.39,4.39,0,0,0,1.38-3.18,4,4,0,0,0-.72-2.05,2.85,2.85,0,0,0-2.59-1.33,4.56,4.56,0,0,0-3,1.08L419.11,90.1V63.46a3.87,3.87,0,0,0-3.86-3.86,3.62,3.62,0,0,0-2.7,1.14,3.79,3.79,0,0,0-1.09,2.72v44.78a3.75,3.75,0,0,0,3.79,3.79,3.8,3.8,0,0,0,2.72-1.09,3.62,3.62,0,0,0,1.14-2.71v-8.6l5.21-4.73,11.46,15.58a4.34,4.34,0,0,0,3.34,1.54,3.55,3.55,0,0,0,2.47-1,3.3,3.3,0,0,0,1.12-2.51A4,4,0,0,0,441.87,106Z"/></svg>