<svg id="Layer_1" data-name="Layer 1" xmlns="http://www.w3.org/2000/svg" xmlns:xlink="http://www.w3.org/1999/xlink" viewBox="0 0 323.28 79.01"><defs><style>.cls-1,.cls-7{fill:#4fd5d6;}.cls-1,.cls-2,.cls-3,.cls-4,.cls-5,.cls-6{clip-rule:evenodd;}.cls-17,.cls-2{fill:#350f2b;}.cls-3,.cls-9{fill:red;}.cls-11,.cls-4{fill:#cdffff;}.cls-13,.cls-5{fill:#872835;}.cls-15,.cls-6{fill:#ff5d5f;}.cls-11,.cls-13,.cls-15,.cls-17,.cls-21,.cls-22,.cls-7,.cls-9{fill-rule:evenodd;}.cls-8{clip-path:url(#clip-path);}.cls-10{clip-path:url(#clip-path-2);}.cls-12{clip-path:url(#clip-path-3);}.cls-14{clip-path:url(#clip-path-4);}.cls-16{clip-path:url(#clip-path-5);}.cls-18{clip-path:url(#clip-path-6);}.cls-19{clip-path:url(#clip-path-7);}.cls-20{fill:#434343;}.cls-21{fill:#00b6c9;}.cls-22{fill:#00d8d8;}</style><clipPath id="clip-path" transform="translate(-24.73 -24.74)"><polygon class="cls-1" points="59.03 24.74 93.33 44.81 59.03 64.53 59.03 24.74"/></clipPath><clipPath id="clip-path-2" transform="translate(-24.73 -24.74)"><polygon class="cls-3" points="93.33 44.81 59.03 64.5 59.03 103.74 93.33 83.77 93.33 44.81"/></clipPath><clipPath id="clip-path-3" transform="translate(-24.73 -24.74)"><polygon class="cls-4" points="59.03 24.74 24.73 45.14 59.03 64.53 59.03 24.74"/></clipPath><clipPath id="clip-path-4" transform="translate(-24.73 -24.74)"><polygon class="cls-5" points="24.73 45.14 59.03 64.53 59.03 103.74 24.73 83.77 24.73 45.14"/></clipPath><clipPath id="clip-path-5" transform="translate(-24.73 -24.74)"><polygon class="cls-6" points="82.27 51.2 82.27 77.74 59.01 90.87 59.01 83.83 76.18 74.14 76.18 61.88 59.03 71.54 59.03 64.53 82.27 51.2"/></clipPath><clipPath id="clip-path-6" transform="translate(-24.73 -24.74)"><polygon class="cls-2" points="35.71 51.35 59.03 64.53 59.03 71.54 35.72 58.33 35.71 51.35"/></clipPath><clipPath id="clip-path-7" transform="translate(-24.73 -24.74)"><polygon class="cls-2" points="48.42 77.85 59.03 83.86 59.03 90.87 48.42 84.87 48.42 77.85"/></clipPath></defs><polygon class="cls-7" points="34.3 0 68.6 20.08 34.3 39.79 34.3 0"/><polygon class="cls-9" points="68.6 20.08 34.3 39.76 34.3 79.01 68.6 59.03 68.6 20.08"/><polygon class="cls-11" points="34.3 0 0 20.4 34.3 39.79 34.3 0"/><polygon class="cls-13" points="0 20.4 34.3 39.79 34.3 79.01 0 59.03 0 20.4"/><polygon class="cls-15" points="57.54 26.46 57.54 53 34.28 66.14 34.28 59.09 51.45 49.4 51.45 37.14 34.3 46.8 34.3 39.79 57.54 26.46"/><polygon class="cls-17" points="10.99 26.62 34.3 39.79 34.3 46.8 10.99 33.59 10.99 26.62"/><polygon class="cls-17" points="23.69 53.11 34.3 59.12 34.3 66.14 23.7 60.13 23.69 53.11"/><path class="cls-20" d="M127.47,65.78A11.75,11.75,0,0,0,129.75,67a5.92,5.92,0,0,0,2.11.43,3,3,0,0,0,1.43-.27.84.84,0,0,0,.49-.8.5.5,0,0,0-.21-.43,1.68,1.68,0,0,0-.57-.27,4.89,4.89,0,0,0-.82-.17c-.31,0-.63-.1-1-.17l-1.09-.2a11.22,11.22,0,0,1-1.29-.34,8.81,8.81,0,0,1-1.31-.57,4.75,4.75,0,0,1-1.17-.87,4.27,4.27,0,0,1-.82-1.27,4.59,4.59,0,0,1-.3-1.74,4.7,4.7,0,0,1,.57-2.43,4.44,4.44,0,0,1,1.46-1.52,5.78,5.78,0,0,1,2-.79,10.44,10.44,0,0,1,2.11-.22,9.2,9.2,0,0,1,3.21.52,10.38,10.38,0,0,1,2.72,1.52.58.58,0,0,1,.19.36.54.54,0,0,1-.11.39l-1.66,2.36a.55.55,0,0,1-.34.22.43.43,0,0,1-.38-.09,8.81,8.81,0,0,0-2-1,6,6,0,0,0-1.73-.29h-.54a2.8,2.8,0,0,0-.59.09,1,1,0,0,0-.45.25.6.6,0,0,0-.18.46c0,.2.14.38.44.54a5.83,5.83,0,0,0,1,.4,10.33,10.33,0,0,0,1.1.27l.69.12a13.88,13.88,0,0,1,1.68.43,6.16,6.16,0,0,1,1.72.86,4.64,4.64,0,0,1,1.34,1.47,4.36,4.36,0,0,1,.54,2.27,5,5,0,0,1-.45,2.2,3.93,3.93,0,0,1-1.24,1.52,5.32,5.32,0,0,1-1.92.89,10,10,0,0,1-2.48.29,11.24,11.24,0,0,1-2.07-.18,10.4,10.4,0,0,1-1.79-.5A10.14,10.14,0,0,1,126.5,70a11.77,11.77,0,0,1-1.31-.93.46.46,0,0,1-.19-.35.53.53,0,0,1,.11-.39l1.64-2.37a.55.55,0,0,1,.34-.21A.5.5,0,0,1,127.47,65.78Z" transform="translate(-24.73 -24.74)"/><path class="cls-20" d="M158.27,56V70.62a.51.51,0,0,1-.51.51h-3.2a.48.48,0,0,1-.37-.15.52.52,0,0,1-.14-.36V66.06a.51.51,0,0,0-.51-.51h-4.37a.47.47,0,0,0-.37.15.48.48,0,0,0-.14.36v4.56a.49.49,0,0,1-.15.36.5.5,0,0,1-.37.15H145a.48.48,0,0,1-.37-.15.52.52,0,0,1-.14-.36V56a.52.52,0,0,1,.14-.36.48.48,0,0,1,.37-.15h3.19a.5.5,0,0,1,.37.15.49.49,0,0,1,.15.36v5a.48.48,0,0,0,.14.36.47.47,0,0,0,.37.15h4.37a.51.51,0,0,0,.51-.51V56a.52.52,0,0,1,.14-.36.48.48,0,0,1,.37-.15h3.2a.51.51,0,0,1,.51.51Z" transform="translate(-24.73 -24.74)"/><path class="cls-20" d="M170.21,56a.73.73,0,0,1,.28-.33.79.79,0,0,1,.44-.14h3a.84.84,0,0,1,.71.47l6.22,14.49a.43.43,0,0,1,0,.41.48.48,0,0,1-.46.21h-3.64a.77.77,0,0,1-.44-.14.89.89,0,0,1-.31-.33l-.57-1.28a1.21,1.21,0,0,0-.31-.33.78.78,0,0,0-.42-.14h-4.5a.76.76,0,0,0-.43.14.82.82,0,0,0-.29.33l-.6,1.28a.76.76,0,0,1-.29.33.72.72,0,0,1-.41.14h-3.67a.6.6,0,0,1-.22,0,.43.43,0,0,1-.19-.13.51.51,0,0,1-.1-.21.51.51,0,0,1,.07-.3Zm1.25,9.27h1.9a.36.36,0,0,0,.31-.14.3.3,0,0,0,0-.33c-.14-.35-.31-.77-.51-1.25l-.56-1.33c-.05-.13-.12-.19-.19-.19s-.13.06-.19.19l-1.07,2.58a.38.38,0,0,0,0,.33A.36.36,0,0,0,171.46,65.29Z" transform="translate(-24.73 -24.74)"/><path class="cls-20" d="M201.17,56V70.62A.52.52,0,0,1,201,71a.5.5,0,0,1-.37.15h-3.14a.89.89,0,0,1-.45-.13.91.91,0,0,1-.36-.3l-5.55-7.82c-.09-.11-.18-.16-.27-.14s-.14.11-.14.25v7.63a.51.51,0,0,1-.51.51h-3.19a.5.5,0,0,1-.37-.15.49.49,0,0,1-.15-.36V56a.51.51,0,0,1,.51-.51h3.2a1,1,0,0,1,.45.12.94.94,0,0,1,.36.28l5.54,7.83c.09.11.18.16.27.14s.14-.09.14-.23V56a.51.51,0,0,1,.51-.51h3.15a.51.51,0,0,1,.37.15A.52.52,0,0,1,201.17,56Z" transform="translate(-24.73 -24.74)"/><path class="cls-20" d="M212.75,60v.9a.51.51,0,0,0,.51.51H219a.5.5,0,0,1,.37.15.49.49,0,0,1,.15.36v2.94a.49.49,0,0,1-.15.36.5.5,0,0,1-.37.15h-5.77a.51.51,0,0,0-.51.51v.81a.5.5,0,0,0,.15.37.49.49,0,0,0,.36.15h6.63a.52.52,0,0,1,.36.14.51.51,0,0,1,.15.37v2.94a.51.51,0,0,1-.51.51H209a.51.51,0,0,1-.51-.51V56a.51.51,0,0,1,.51-.51h10.85a.51.51,0,0,1,.51.51v2.9a.51.51,0,0,1-.51.51h-6.63a.51.51,0,0,0-.51.51Z" transform="translate(-24.73 -24.74)"/><path class="cls-20" d="M245.32,66.93h-1.86a.51.51,0,0,0-.51.51v3.18a.51.51,0,0,1-.51.51h-3.2a.51.51,0,0,1-.51-.51V56a.51.51,0,0,1,.51-.51h6.52a5.74,5.74,0,0,1,4.08,1.68,6.15,6.15,0,0,1,1.24,1.84,5.56,5.56,0,0,1,.46,2.23,6.26,6.26,0,0,1-.39,2.23A4.66,4.66,0,0,1,250,65.3a5.44,5.44,0,0,1-2,1.19A7.5,7.5,0,0,1,245.32,66.93Zm.16-7.48h-2A.51.51,0,0,0,243,60v2.5a.51.51,0,0,0,.51.51h2.29a1.38,1.38,0,0,0,1.19-.52,2,2,0,0,0,.26-1.85,1.69,1.69,0,0,0-.93-1A1.8,1.8,0,0,0,245.48,59.45Z" transform="translate(-24.73 -24.74)"/><path class="cls-20" d="M260.64,56a.7.7,0,0,1,.29-.33.76.76,0,0,1,.43-.14h3a.72.72,0,0,1,.41.14.76.76,0,0,1,.29.33l6.22,14.49a.43.43,0,0,1,0,.41.48.48,0,0,1-.46.21h-3.64a.79.79,0,0,1-.44-.14,1,1,0,0,1-.31-.33l-.57-1.28a1.07,1.07,0,0,0-.31-.33.78.78,0,0,0-.42-.14H260.6a.77.77,0,0,0-.44.14.82.82,0,0,0-.29.33l-.6,1.28A.73.73,0,0,1,259,71a.78.78,0,0,1-.42.14H254.9a.6.6,0,0,1-.22,0,.43.43,0,0,1-.19-.13.51.51,0,0,1-.1-.21.51.51,0,0,1,.07-.3Zm1.26,9.27h1.89a.36.36,0,0,0,.31-.14.29.29,0,0,0,0-.33c-.14-.35-.31-.77-.51-1.25s-.38-.92-.55-1.33c-.06-.13-.13-.19-.2-.19s-.13.06-.19.19l-1.06,2.58a.32.32,0,0,0,0,.33A.34.34,0,0,0,261.9,65.29Z" transform="translate(-24.73 -24.74)"/><path class="cls-20" d="M279.84,71.13h-3.19a.5.5,0,0,1-.37-.15.49.49,0,0,1-.15-.36V56a.51.51,0,0,1,.51-.51h6.63a6.21,6.21,0,0,1,2.28.41,5.17,5.17,0,0,1,2.93,2.94,5.85,5.85,0,0,1,.42,2.25,5.68,5.68,0,0,1-.16,1.36,6,6,0,0,1-.46,1.27,5.64,5.64,0,0,1-.7,1.07,3.87,3.87,0,0,1-.92.8.6.6,0,0,0-.22.31.38.38,0,0,0,.07.35c.54.71,1.11,1.44,1.71,2.2s1.13,1.44,1.6,2.07a.4.4,0,0,1,.06.37.27.27,0,0,1-.28.2h-4a1.05,1.05,0,0,1-.46-.12.91.91,0,0,1-.37-.28l-1.35-1.82c-.45-.61-.89-1.22-1.33-1.85a1,1,0,0,0-.36-.29.94.94,0,0,0-.44-.12h-.47a.49.49,0,0,0-.36.15.5.5,0,0,0-.15.37v3.45a.51.51,0,0,1-.51.51Zm1-8.4h2.25a1.69,1.69,0,0,0,.53-.09,1.9,1.9,0,0,0,.51-.3,1.74,1.74,0,0,0,.38-.5,1.58,1.58,0,0,0,.15-.71,2.7,2.7,0,0,0-.07-.5,1.84,1.84,0,0,0-.26-.55,1.43,1.43,0,0,0-1.24-.63h-2.25a.51.51,0,0,0-.51.51v2.26a.51.51,0,0,0,.51.51Z" transform="translate(-24.73 -24.74)"/><path class="cls-20" d="M304.4,70.75l-4.14-4.63c-.1-.11-.18-.15-.24-.13s-.1.12-.1.26v4.37a.51.51,0,0,1-.51.51h-3.2a.47.47,0,0,1-.37-.15.48.48,0,0,1-.14-.36V56a.48.48,0,0,1,.14-.36.47.47,0,0,1,.37-.15h3.2a.51.51,0,0,1,.51.51v4.9c0,.14,0,.23.08.25s.13,0,.22-.14L304.05,56a1.16,1.16,0,0,1,.84-.41H309a.28.28,0,0,1,.29.2.38.38,0,0,1-.06.38l-5.61,7a.58.58,0,0,0-.11.39.49.49,0,0,0,.16.37q.72.8,1.53,1.65c.54.56,1.08,1.14,1.61,1.71L308.35,69c.52.56,1,1.08,1.48,1.56a.47.47,0,0,1,.11.39.25.25,0,0,1-.28.21h-4.41a1.05,1.05,0,0,1-.48-.11A.83.83,0,0,1,304.4,70.75Z" transform="translate(-24.73 -24.74)"/><path class="cls-20" d="M319.68,60v.9a.52.52,0,0,0,.14.36.5.5,0,0,0,.37.15H326a.46.46,0,0,1,.36.15.49.49,0,0,1,.15.36v2.94a.49.49,0,0,1-.15.36.46.46,0,0,1-.36.15h-5.77a.5.5,0,0,0-.37.15.52.52,0,0,0-.14.36v.81a.53.53,0,0,0,.14.37.5.5,0,0,0,.37.15h6.63a.52.52,0,0,1,.36.14.51.51,0,0,1,.15.37v2.94a.51.51,0,0,1-.51.51H316a.46.46,0,0,1-.36-.15.49.49,0,0,1-.15-.36V56a.49.49,0,0,1,.15-.36.46.46,0,0,1,.36-.15h10.85a.51.51,0,0,1,.51.51v2.9a.51.51,0,0,1-.51.51h-6.63a.5.5,0,0,0-.37.15A.52.52,0,0,0,319.68,60Z" transform="translate(-24.73 -24.74)"/><path class="cls-20" d="M337.94,71.13h-3.19a.51.51,0,0,1-.37-.15.49.49,0,0,1-.15-.36V56a.51.51,0,0,1,.51-.51h6.63a6.21,6.21,0,0,1,2.28.41,5.17,5.17,0,0,1,2.93,2.94,5.85,5.85,0,0,1,.42,2.25,5.68,5.68,0,0,1-.16,1.36,6,6,0,0,1-.46,1.27,5.64,5.64,0,0,1-.7,1.07,3.87,3.87,0,0,1-.92.8.6.6,0,0,0-.22.31.38.38,0,0,0,.07.35c.54.71,1.11,1.44,1.71,2.2s1.13,1.44,1.6,2.07a.4.4,0,0,1,.06.37.26.26,0,0,1-.28.2h-4a1.05,1.05,0,0,1-.46-.12.91.91,0,0,1-.37-.28l-1.35-1.82c-.45-.61-.89-1.22-1.32-1.85a1.11,1.11,0,0,0-.37-.29.94.94,0,0,0-.44-.12H339a.49.49,0,0,0-.36.15.5.5,0,0,0-.15.37v3.45a.51.51,0,0,1-.51.51Zm1-8.4h2.25a1.69,1.69,0,0,0,.53-.09,1.9,1.9,0,0,0,.51-.3,1.74,1.74,0,0,0,.38-.5,1.58,1.58,0,0,0,.15-.71,2.05,2.05,0,0,0-.07-.5,1.84,1.84,0,0,0-.26-.55,1.43,1.43,0,0,0-1.24-.63H339a.51.51,0,0,0-.51.51v2.26a.51.51,0,0,0,.51.51Z" transform="translate(-24.73 -24.74)"/><polygon class="cls-21" points="44.91 26.46 34.3 20.48 34.3 13.47 44.91 19.44 44.91 26.46"/><polygon class="cls-22" points="10.99 26.62 17.26 30.14 34.3 20.48 34.3 13.47 10.99 26.62"/></svg>
